<?xml version="1.0" standalone="no"?>
<!DOCTYPE svg PUBLIC "-//W3C//DTD SVG 20010904//EN"
 "http://www.w3.org/TR/2001/REC-SVG-20010904/DTD/svg10.dtd">
<svg version="1.0" xmlns="http://www.w3.org/2000/svg"
 width="1000.000000pt" height="1000.000000pt" viewBox="0 0 1000.000000 1000.000000"
 preserveAspectRatio="xMidYMid meet">
<metadata>
Created by potrace 1.14, written by Peter Selinger 2001-2017
</metadata>
<g transform="translate(0.000000,1000.000000) scale(0.100000,-0.100000)"
fill="#000000" stroke="none">
<path d="M4738 9995 c-2 -1 -52 -6 -113 -9 -60 -4 -119 -9 -130 -11 -11 -2
-47 -7 -80 -10 -33 -3 -69 -7 -80 -9 -11 -2 -42 -7 -70 -10 -599 -81 -1271
-320 -1819 -649 -471 -281 -912 -652 -1236 -1037 -25 -29 -49 -58 -55 -64 -38
-42 -140 -174 -233 -305 -278 -389 -509 -844 -662 -1301 -51 -152 -119 -394
-134 -470 -2 -14 -14 -68 -25 -120 -11 -52 -25 -124 -31 -160 -5 -36 -12 -76
-14 -90 -6 -35 -15 -106 -22 -170 -3 -30 -7 -66 -10 -80 -24 -155 -25 -862 0
-995 2 -11 7 -51 11 -90 4 -38 9 -77 10 -86 2 -9 6 -40 10 -70 3 -30 13 -85
20 -124 8 -38 17 -86 20 -105 11 -64 55 -251 81 -344 14 -50 27 -101 30 -112
9 -47 109 -328 167 -469 117 -288 308 -646 481 -900 33 -49 64 -94 69 -100 4
-5 31 -42 60 -81 222 -301 498 -596 787 -840 571 -483 1264 -842 1977 -1025
85 -21 166 -41 181 -44 15 -2 70 -13 122 -24 52 -10 131 -24 175 -31 44 -6 91
-13 105 -15 14 -2 50 -7 80 -10 30 -4 69 -8 85 -10 211 -26 858 -26 1005 -1
14 3 52 7 85 10 33 3 69 8 81 10 12 2 45 7 75 11 144 17 533 102 637 139 23 8
42 13 42 11 0 -8 356 118 495 176 352 147 734 360 1015 567 86 64 241 185 285
223 492 427 846 853 1145 1379 40 72 188 367 224 450 108 247 245 659 282 850
3 14 9 41 14 60 24 89 71 367 85 500 3 30 8 69 10 85 27 194 27 788 0 1010 -2
17 -6 57 -10 89 -3 32 -7 62 -9 65 -2 3 -7 36 -10 74 -4 37 -9 73 -11 80 -2 6
-7 29 -10 50 -10 70 -50 253 -89 412 -12 47 -34 122 -73 245 -171 545 -491
1146 -840 1580 -631 785 -1431 1343 -2363 1650 -133 44 -349 105 -410 116 -14
3 -33 7 -42 10 -18 5 -14 5 -158 33 -144 28 -316 53 -460 67 -41 4 -88 9 -105
11 -36 5 -642 13 -647 8z"/>
</g>
</svg>
