<svg xmlns="http://www.w3.org/2000/svg" width="53" height="80" viewBox="0 0 53 80" fill="none">
    <path d="M27.4016 21.6022C29.4149 21.3345 31.3441 20.9498 33.189 20.448C34.2799 20.1507 35.1028 19.7195 35.6578 19.1545C38.1381 16.6343 38.8903 11.332 38.7525 8.15391C38.7488 8.06717 38.7221 7.98267 38.6748 7.90849C38.6276 7.8343 38.5614 7.77291 38.4826 7.73017C37.8166 7.37706 37.3133 7.28041 36.9726 7.44024" stroke="#6B905C" strokeWidth="1.99326"/>
    <path d="M36.9726 7.44025C32.3565 11.4286 29.1661 16.1493 27.4016 21.6022" stroke="#C5E0A3" strokeWidth="1.99326"/>
    <path d="M26.9767 36.1543C26.6744 36.1543 26.4791 35.948 26.3911 35.5355C24.5711 27.2167 13.5762 23.771 7.63376 30.4505C2.98701 35.673 1.82915 41.7336 4.16018 48.6324C5.963 53.985 9.53993 58.1499 14.2594 61.3168C15.0804 61.8688 15.7981 62.6438 16.688 63.2125C17.867 63.9634 18.5119 64.3797 18.6229 64.4614C21.7999 66.9072 24.6821 69.7508 27.2695 72.992" stroke="#E7BF9B" strokeWidth="1.99326"/>
    <path d="M27.2695 72.992C27.2963 73.1221 27.4016 73.2039 27.5853 73.2374C27.7844 73.2708 27.9413 73.2076 28.0561 73.0478C30.7891 69.2341 33.6502 66.3255 36.6396 64.3221C43.9485 59.4267 49.3569 53.6114 49.8909 44.6069C50.1282 40.6222 49.1943 36.9386 47.0891 33.5561C44.0461 28.672 38.362 25.5719 32.4196 27.0327C28.0963 28.0921 27.6198 32.0842 26.9767 36.1543" stroke="#D7B59C" strokeWidth="1.99326"/>
    <path d="M27.2695 72.992C27.3423 72.3862 27.038 71.7617 26.3567 71.1187C26.2317 70.9974 26.1615 70.833 26.1614 70.6615V70.2489C26.1614 70.0965 26.2361 69.9943 26.3854 69.9422C26.6495 69.853 26.8466 69.6802 26.9767 69.4237C27.2466 68.8884 26.9308 67.9462 27.1777 67.2102C27.6887 65.6825 28.0159 64.06 28.0619 62.4487C28.1078 60.8206 28.3432 59.148 28.3432 57.6035C28.3355 52.2473 28.3355 46.891 28.3432 41.5348C28.3432 40.6687 28.192 39.3417 27.8896 37.5538C27.8667 37.4051 27.7997 37.2788 27.6887 37.1747C27.5509 37.0483 27.5203 36.881 27.5968 36.6729C27.6504 36.5279 27.6121 36.409 27.482 36.316C27.3327 36.2083 27.1643 36.1544 26.9767 36.1544" stroke="#C2763A" strokeWidth="1.99326"/>
    <path d="M16.6294 41.066C16.5197 40.4618 16.2838 39.8852 15.9352 39.3693C15.5866 38.8534 15.1322 38.4081 14.5978 38.0591C14.0634 37.71 13.4596 37.464 12.8208 37.3349C12.182 37.2059 11.5207 37.1964 10.8747 37.307C9.57006 37.5304 8.40689 38.2294 7.64105 39.2503C6.87521 40.2712 6.56945 41.5303 6.79103 42.7506C6.90075 43.3549 7.13662 43.9314 7.4852 44.4474C7.83378 44.9633 8.28822 45.4085 8.82259 45.7576C9.35696 46.1066 9.96079 46.3527 10.5996 46.4818C11.2384 46.6108 11.8997 46.6203 12.5457 46.5097C13.8503 46.2863 15.0135 45.5872 15.7794 44.5664C16.5452 43.5455 16.8509 42.2864 16.6294 41.066Z" stroke="#E7BF9B" strokeWidth="1.99326"/>
    <path d="M36.9726 7.44024C32.3565 11.4286 29.1661 16.1493 27.4016 21.6021C27.0686 24.468 27.0418 27.252 27.3212 29.9543C27.3863 30.5491 27.5279 30.5676 27.7461 30.0101C29.3996 25.8396 34.2225 24.4067 38.7238 25.3043C45.8719 26.7373 50.7062 32.363 51.9693 39.1875C54.4381 52.4684 46.6183 59.0309 37.0243 66.2456C32.4656 69.6746 29.0551 73.7615 27.5853 79.1531C27.5697 79.2171 27.533 79.2745 27.4806 79.3163C27.4283 79.3582 27.3633 79.3822 27.2955 79.3847C27.2278 79.3873 27.161 79.3681 27.1055 79.3303C27.05 79.2925 27.0088 79.2381 26.9882 79.1754C24.9443 73.3043 20.0755 68.3755 14.9024 64.9855C5.87688 59.0755 -0.760248 50.8069 0.801429 39.7394C1.78322 32.7979 6.45102 25.8897 14.3226 25.4493C19.9147 25.1315 22.6305 27.6907 26.0007 31.443C26.1768 31.64 26.2552 31.6103 26.2361 31.3538C25.8572 26.28 25.1911 21.3011 25.1337 16.2106C25.0993 13.2778 25.3175 11.0383 25.7883 9.49204C26.8389 6.01847 29.6293 2.11558 33.2636 0.972592C37.7018 -0.426872 42.45 1.71414 43.3399 6.40318C44.0557 10.1946 43.0586 13.6235 40.3486 16.6901C40.3249 16.7175 40.2936 16.7375 40.2583 16.7479C40.2231 16.7582 40.1855 16.7584 40.1502 16.7483C40.1149 16.7383 40.0834 16.7184 40.0594 16.6913C40.0355 16.6641 40.0203 16.6307 40.0156 16.5953C39.9926 16.4764 40.0156 16.3388 40.0845 16.1827C41.2825 13.4247 41.7342 10.5402 41.4395 7.52945C40.94 2.43339 35.1354 0.855506 31.5297 4.24544C28.2801 7.30457 26.7088 10.9621 26.816 15.2181C26.8351 16.1288 26.9729 16.1474 27.2294 15.2739C28.2628 11.739 32.4311 6.54815 36.9726 7.44024ZM26.9767 36.1544C26.6744 36.1544 26.4791 35.9481 26.3911 35.5355C24.5711 27.2167 13.5762 23.771 7.63376 30.4506C2.98701 35.673 1.82915 41.7336 4.16018 48.6324C5.963 53.985 9.53993 58.1499 14.2594 61.3168C15.0804 61.8688 15.7981 62.6438 16.688 63.2125C17.867 63.9634 18.5119 64.3797 18.6229 64.4614C21.7999 66.9073 24.6821 69.7508 27.2696 72.9921C27.2964 73.1221 27.4016 73.2039 27.5853 73.2374C27.7844 73.2708 27.9413 73.2076 28.0561 73.0478C30.7891 69.2341 33.6502 66.3255 36.6396 64.3221C43.9485 59.4267 49.3569 53.6114 49.8909 44.6069C50.1282 40.6222 49.1943 36.9386 47.0891 33.5561C44.0461 28.672 38.3621 25.5719 32.4196 27.0327C28.0963 28.0921 27.6198 32.0842 26.9767 36.1544Z" fill="#FCFDFC"/>
    <path d="M36.9726 7.44024C37.3133 7.28041 37.8166 7.37705 38.4826 7.73017C38.5614 7.77291 38.6276 7.8343 38.6748 7.90849C38.7221 7.98267 38.7488 8.06717 38.7525 8.15391C38.8903 11.332 38.1381 16.6343 35.6578 19.1545C35.1028 19.7195 34.2799 20.1507 33.189 20.448C31.3441 20.9498 29.4149 21.3345 27.4016 21.6022C29.1661 16.1493 32.3565 11.4286 36.9726 7.44024Z" fill="#8EC249"/>
    <path d="M27.2696 72.992C27.3423 72.3862 27.038 71.7617 26.3567 71.1187C26.2317 70.9974 26.1615 70.833 26.1615 70.6615V70.2489C26.1615 70.0965 26.2361 69.9943 26.3854 69.9422C26.6495 69.853 26.8466 69.6802 26.9767 69.4237C27.2466 68.8884 26.9308 67.9462 27.1777 67.2102C27.6887 65.6825 28.0159 64.06 28.0619 62.4487C28.1078 60.8206 28.3432 59.1479 28.3432 57.6035C28.3356 52.2473 28.3356 46.891 28.3432 41.5348C28.3432 40.6687 28.192 39.3417 27.8896 37.5538C27.8667 37.4051 27.7997 37.2788 27.6887 37.1747C27.5509 37.0483 27.5203 36.881 27.5968 36.6729C27.6504 36.5279 27.6121 36.409 27.482 36.316C27.3327 36.2082 27.1643 36.1543 26.9767 36.1543C27.6198 32.0842 28.0963 28.0921 32.4196 27.0327C38.3621 25.5719 44.0461 28.672 47.0891 33.5561C49.1943 36.9386 50.1282 40.6222 49.8909 44.6069C49.357 53.6114 43.9485 59.4267 36.6396 64.3221C33.6502 66.3255 30.7891 69.2341 28.0561 73.0478C27.9413 73.2076 27.7844 73.2708 27.5853 73.2374C27.4016 73.2039 27.2963 73.1221 27.2696 72.992Z" fill="#B26C3B"/>
    <path d="M26.9767 36.1544C27.1643 36.1544 27.3327 36.2083 27.482 36.3161C27.6121 36.409 27.6504 36.5279 27.5968 36.6729C27.5203 36.881 27.5509 37.0483 27.6887 37.1747C27.7997 37.2788 27.8667 37.4052 27.8896 37.5538C28.192 39.3417 28.3432 40.6687 28.3432 41.5348C28.3356 46.891 28.3356 52.2473 28.3432 57.6035C28.3432 59.148 28.1078 60.8206 28.0619 62.4487C28.016 64.06 27.6887 65.6825 27.1777 67.2102C26.9308 67.9462 27.2466 68.8885 26.9767 69.4237C26.8466 69.6802 26.6495 69.853 26.3854 69.9422C26.2361 69.9943 26.1614 70.0965 26.1614 70.2489V70.6615C26.1615 70.833 26.2317 70.9974 26.3567 71.1187C27.038 71.7617 27.3423 72.3862 27.2696 72.9921C24.6821 69.7508 21.7999 66.9073 18.6229 64.4615C18.5119 64.3797 17.867 63.9634 16.688 63.2125C15.7981 62.6438 15.0804 61.8688 14.2594 61.3169C9.53993 58.1499 5.963 53.985 4.16018 48.6325C1.82915 41.7336 2.98701 35.673 7.63376 30.4506C13.5762 23.7711 24.5711 27.2168 26.3911 35.5355C26.4791 35.9481 26.6744 36.1544 26.9767 36.1544ZM16.6294 41.066C16.5197 40.4618 16.2838 39.8852 15.9352 39.3693C15.5866 38.8534 15.1322 38.4082 14.5978 38.0591C14.0634 37.71 13.4596 37.464 12.8208 37.3349C12.182 37.2059 11.5207 37.1964 10.8747 37.307C9.57006 37.5304 8.40688 38.2294 7.64105 39.2503C6.87521 40.2712 6.56945 41.5303 6.79103 42.7506C6.90075 43.3549 7.13662 43.9315 7.4852 44.4474C7.83378 44.9633 8.28822 45.4085 8.82259 45.7576C9.35696 46.1066 9.96079 46.3527 10.5996 46.4818C11.2384 46.6108 11.8997 46.6203 12.5457 46.5097C13.8503 46.2863 15.0135 45.5872 15.7793 44.5664C16.5452 43.5455 16.8509 42.2864 16.6294 41.066Z" fill="#D18039"/>
    <path d="M12.5457 46.5097C15.2625 46.0445 17.0908 43.6073 16.6294 41.066C16.168 38.5248 13.5915 36.8418 10.8747 37.307C8.15793 37.7722 6.3296 40.2094 6.79102 42.7507C7.25244 45.2919 9.82889 46.9749 12.5457 46.5097Z" fill="#FCFDFC"/>
  </svg>